{
  "accessors": [
    {
      "bufferView": 2,
      "componentType": 5126,
      "count": 870,
      "max": [
        0.3514503836631775,
        0.06470765918493271,
        0.29355528950691223
      ],
      "min": [
        -0.3174112141132355,
        -0.06630386412143707,
        -0.3738975524902344
      ],
      "type": "VEC3"
    },
    {
      "bufferView": 2,
      "byteOffset": 10440,
      "componentType": 5126,
      "count": 870,
      "max": [
        0.9930959939956665,
        0.9994064569473267,
        0.9733574390411377
      ],
      "min": [
        -0.9988753795623779,
        -0.9995042085647583,
        -0.9993499517440796
      ],
      "type": "VEC3"
    },
    {
      "bufferView": 1,
      "componentType": 5126,
      "count": 870,
      "max": [
        1.0,
        1.0
      ],
      "min": [
        0.0,
        0.0
      ],
      "type": "VEC2"
    },
    {
      "bufferView": 0,
      "componentType": 5125,
      "count": 870,
      "type": "SCALAR"
    },
    {
      "bufferView": 2,
      "byteOffset": 20880,
      "componentType": 5126,
      "count": 1152,
      "max": [
        0.19292554259300232,
        0.29223209619522095,
        0.17757004499435425
      ],
      "min": [
        -0.20962023735046387,
        -0.07891713827848434,
        -0.2319575995206833
      ],
      "type": "VEC3"
    },
    {
      "bufferView": 2,
      "byteOffset": 34704,
      "componentType": 5126,
      "count": 1152,
      "max": [
        0.995527446269989,
        0.9960795640945435,
        0.9932776093482971
      ],
      "min": [
        -0.9935963749885559,
        -0.9845554232597351,
        -0.9962790012359619
      ],
      "type": "VEC3"
    },
    {
      "bufferView": 1,
      "byteOffset": 6960,
      "componentType": 5126,
      "count": 1152,
      "max": [
        1.0,
        1.0
      ],
      "min": [
        0.0,
        0.0
      ],
      "type": "VEC2"
    },
    {
      "bufferView": 0,
      "byteOffset": 3480,
      "componentType": 5125,
      "count": 1152,
      "type": "SCALAR"
    },
    {
      "bufferView": 2,
      "byteOffset": 48528,
      "componentType": 5126,
      "count": 174,
      "max": [
        0.17886529862880707,
        0.6025341749191284,
        0.15517646074295044
      ],
      "min": [
        -0.20739750564098358,
        -0.08948561549186707,
        -0.15791822969913483
      ],
      "type": "VEC3"
    },
    {
      "bufferView": 2,
      "byteOffset": 50616,
      "componentType": 5126,
      "count": 174,
      "max": [
        0.9730644226074219,
        0.9725783467292786,
        0.9914329648017883
      ],
      "min": [
        -0.9269850850105286,
        -0.9727387428283691,
        -0.994459867477417
      ],
      "type": "VEC3"
    },
    {
      "bufferView": 1,
      "byteOffset": 16176,
      "componentType": 5126,
      "count": 174,
      "max": [
        1.0,
        1.0
      ],
      "min": [
        0.0,
        0.0
      ],
      "type": "VEC2"
    },
    {
      "bufferView": 0,
      "byteOffset": 8088,
      "componentType": 5125,
      "count": 174,
      "type": "SCALAR"
    },
    {
      "bufferView": 2,
      "byteOffset": 52704,
      "componentType": 5126,
      "count": 174,
      "max": [
        0.07866447418928146,
        0.38702237606048584,
        0.07918102294206619
      ],
      "min": [
        -0.10532756894826889,
        0.03425728902220726,
        -0.08042260259389877
      ],
      "type": "VEC3"
    },
    {
      "bufferView": 2,
      "byteOffset": 54792,
      "componentType": 5126,
      "count": 174,
      "max": [
        0.9763606786727905,
        0.9690831899642944,
        0.9902183413505554
      ],
      "min": [
        -0.9353684782981873,
        -0.97093665599823,
        -0.9937320351600647
      ],
      "type": "VEC3"
    },
    {
      "bufferView": 1,
      "byteOffset": 17568,
      "componentType": 5126,
      "count": 174,
      "max": [
        1.0,
        1.0
      ],
      "min": [
        0.0,
        0.0
      ],
      "type": "VEC2"
    },
    {
      "bufferView": 0,
      "byteOffset": 8784,
      "componentType": 5125,
      "count": 174,
      "type": "SCALAR"
    },
    {
      "bufferView": 3,
      "componentType": 5126,
      "count": 21,
      "max": [
        0.875
      ],
      "min": [
        0.0416666679084301
      ],
      "type": "SCALAR"
    },
    {
      "bufferView": 4,
      "componentType": 5126,
      "count": 21,
      "max": [
        1.0297648906707764,
        1.0,
        1.0
      ],
      "min": [
        0.8851660490036011,
        0.8897619843482971,
        0.8897619843482971
      ],
      "type": "VEC3"
    }
  ],
  "animations": [
    {
      "channels": [
        {
          "sampler": 0,
          "target": {
            "node": 7,
            "path": "scale"
          }
        }
      ],
      "name": "FireAction.001",
      "samplers": [
        {
          "input": 16,
          "interpolation": "LINEAR",
          "output": 17
        }
      ]
    }
  ],
  "asset": {
    "extras": {
      "author": "Afloat Above the World (https://sketchfab.com/ilikecatsnotdogs)",
      "license": "CC-BY-4.0 (http://creativecommons.org/licenses/by/4.0/)",
      "source": "https://sketchfab.com/3d-models/low-poly-campfire-a1637e2556b44876b3d98bf203d4e9c4",
      "title": "Low Poly Campfire"
    },
    "generator": "Sketchfab-12.68.0",
    "version": "2.0"
  },
  "bufferViews": [
    {
      "buffer": 0,
      "byteLength": 9480,
      "name": "floatBufferViews",
      "target": 34963
    },
    {
      "buffer": 0,
      "byteLength": 18960,
      "byteOffset": 9480,
      "byteStride": 8,
      "name": "floatBufferViews",
      "target": 34962
    },
    {
      "buffer": 0,
      "byteLength": 56880,
      "byteOffset": 28440,
      "byteStride": 12,
      "name": "floatBufferViews",
      "target": 34962
    },
    {
      "buffer": 0,
      "byteLength": 84,
      "byteOffset": 85320,
      "name": "floatBufferViews"
    },
    {
      "buffer": 0,
      "byteLength": 252,
      "byteOffset": 85404,
      "byteStride": 12,
      "name": "floatBufferViews"
    }
  ],
  "buffers": [
    {
      "byteLength": 85656,
      "uri": "scene.bin"
    }
  ],
  "extensionsUsed": [
    "KHR_materials_transmission"
  ],
  "materials": [
    {
      "doubleSided": true,
      "name": "stone",
      "pbrMetallicRoughness": {
        "baseColorFactor": [
          0.0835317,
          0.0835317,
          0.0835317,
          1.0
        ],
        "metallicFactor": 0.266667,
        "roughnessFactor": 0.5
      }
    },
    {
      "doubleSided": true,
      "name": "wood",
      "pbrMetallicRoughness": {
        "baseColorFactor": [
          0.137584,
          0.0673788,
          0.0451479,
          1.0
        ],
        "metallicFactor": 0.15,
        "roughnessFactor": 0.758333
      }
    },
    {
      "alphaMode": "BLEND",
      "doubleSided": true,
      "emissiveFactor": [
        1.0,
        0.6005395657339031,
        0.0
      ],
      "name": "Fire",
      "pbrMetallicRoughness": {
        "baseColorFactor": [
          1.0,
          1.0,
          1.0,
          0.5
        ]
      }
    },
    {
      "alphaMode": "BLEND",
      "doubleSided": true,
      "emissiveFactor": [
        1.0,
        0.0798638,
        0.03375659999999999
      ],
      "extensions": {
        "KHR_materials_transmission": {
          "transmissionFactor": 0.4233128834355828
        }
      },
      "name": "Fire1",
      "pbrMetallicRoughness": {
        "baseColorFactor": [
          1.0,
          1.0,
          1.0,
          0.5766871165644172
        ]
      }
    }
  ],
  "meshes": [
    {
      "name": "Object_0",
      "primitives": [
        {
          "attributes": {
            "NORMAL": 1,
            "POSITION": 0,
            "TEXCOORD_0": 2
          },
          "indices": 3,
          "material": 0,
          "mode": 4
        }
      ]
    },
    {
      "name": "Object_1",
      "primitives": [
        {
          "attributes": {
            "NORMAL": 5,
            "POSITION": 4,
            "TEXCOORD_0": 6
          },
          "indices": 7,
          "material": 1,
          "mode": 4
        }
      ]
    },
    {
      "name": "Object_2",
      "primitives": [
        {
          "attributes": {
            "NORMAL": 9,
            "POSITION": 8,
            "TEXCOORD_0": 10
          },
          "indices": 11,
          "material": 2,
          "mode": 4
        }
      ]
    },
    {
      "name": "Object_3",
      "primitives": [
        {
          "attributes": {
            "NORMAL": 13,
            "POSITION": 12,
            "TEXCOORD_0": 14
          },
          "indices": 15,
          "material": 3,
          "mode": 4
        }
      ]
    }
  ],
  "nodes": [
    {
      "children": [
        1
      ],
      "matrix": [
        1.0,
        0.0,
        0.0,
        0.0,
        0.0,
        2.220446049250313e-16,
        -1.0,
        0.0,
        0.0,
        1.0,
        2.220446049250313e-16,
        0.0,
        0.0,
        0.010139189660549164,
        2.2513523624366014e-18,
        1.0
      ],
      "name": "Sketchfab_model"
    },
    {
      "children": [
        2
      ],
      "name": "root"
    },
    {
      "children": [
        3,
        5,
        7
      ],
      "matrix": [
        1.0,
        0.0,
        0.0,
        0.0,
        0.0,
        2.220446049250313e-16,
        1.0,
        0.0,
        0.0,
        -1.0,
        2.220446049250313e-16,
        0.0,
        0.0,
        0.0,
        0.0,
        1.0
      ],
      "name": "GLTF_SceneRootNode"
    },
    {
      "children": [
        4
      ],
      "name": "Stones_0"
    },
    {
      "mesh": 0,
      "name": "Object_4"
    },
    {
      "children": [
        6
      ],
      "name": "logs_1"
    },
    {
      "mesh": 1,
      "name": "Object_6"
    },
    {
      "children": [
        8,
        9
      ],
      "name": "Fire_2",
      "scale": [
        1.0137821435928345,
        1.0,
        1.0
      ]
    },
    {
      "mesh": 2,
      "name": "Object_8"
    },
    {
      "mesh": 3,
      "name": "Object_9"
    }
  ],
  "scene": 0,
  "scenes": [
    {
      "name": "Sketchfab_Scene",
      "nodes": [
        0
      ]
    }
  ]
}
